<svg width="29" height="15" viewBox="0 0 29 15" fill="none" xmlns="http://www.w3.org/2000/svg">
<path d="M14.0025 14.0025C13.5352 14.0034 13.0823 13.8407 12.7225 13.5425L0.722505 3.54251C0.314071 3.20303 0.0572225 2.7152 0.008463 2.18635C-0.0402965 1.6575 0.123027 1.13094 0.462504 0.722504C0.801982 0.31407 1.2898 0.0572225 1.81866 0.00846304C2.34751 -0.0402964 2.87407 0.123026 3.2825 0.462504L14.0025 9.4225L24.7225 0.782505C24.9271 0.616373 25.1625 0.49231 25.4152 0.417446C25.6678 0.342583 25.9328 0.318395 26.1949 0.346274C26.4569 0.374152 26.7109 0.453546 26.9422 0.579893C27.1734 0.706241 27.3775 0.877051 27.5425 1.0825C27.7257 1.28815 27.8644 1.5294 27.95 1.79115C28.0356 2.05289 28.0662 2.3295 28.0399 2.60362C28.0136 2.87775 27.931 3.14349 27.7972 3.38421C27.6634 3.62492 27.4814 3.83542 27.2625 4.0025L15.2625 13.6625C14.8923 13.9135 14.4487 14.0332 14.0025 14.0025Z" fill="black"/>
</svg>
