<svg width="59" height="20" viewBox="0 0 59 20" fill="none" xmlns="http://www.w3.org/2000/svg">
<path fill-rule="evenodd" clip-rule="evenodd" d="M3 8V5C3 3.67392 3.52678 2.40215 4.46447 1.46447C5.40215 0.526784 6.67392 0 8 0C9.32608 0 10.5979 0.526784 11.5355 1.46447C12.4732 2.40215 13 3.67392 13 5V8H14C14.5304 8 15.0391 8.21071 15.4142 8.58579C15.7893 8.96086 16 9.46957 16 10V18C16 18.5304 15.7893 19.0391 15.4142 19.4142C15.0391 19.7893 14.5304 20 14 20H2C1.46957 20 0.960859 19.7893 0.585786 19.4142C0.210714 19.0391 0 18.5304 0 18V10C0 9.46957 0.210714 8.96086 0.585786 8.58579C0.960859 8.21071 1.46957 8 2 8H3ZM2 10V18H14V10H2ZM5 8H11V5C11 4.20435 10.6839 3.44129 10.1213 2.87868C9.55871 2.31607 8.79565 2 8 2C7.20435 2 6.44129 2.31607 5.87868 2.87868C5.31607 3.44129 5 4.20435 5 5V8ZM10 12H12V16H10V12Z" fill="black"/>
<path d="M17.8789 16V8H22.8398V9.03906H19.0859V11.4766H22.4844V12.5117H19.0859V16H17.8789ZM28.6875 10.1016C28.6458 9.73177 28.474 9.44531 28.1719 9.24219C27.8698 9.03646 27.4896 8.93359 27.0313 8.93359C26.7031 8.93359 26.4193 8.98568 26.1797 9.08984C25.9401 9.19141 25.7539 9.33203 25.6211 9.51172C25.4909 9.6888 25.4258 9.89062 25.4258 10.1172C25.4258 10.3073 25.4701 10.4714 25.5586 10.6094C25.6497 10.7474 25.7682 10.8633 25.9141 10.957C26.0625 11.0482 26.2214 11.125 26.3906 11.1875C26.5599 11.2474 26.7227 11.2969 26.8789 11.3359L27.6602 11.5391C27.9154 11.6016 28.1771 11.6862 28.4453 11.793C28.7135 11.8997 28.9622 12.0404 29.1914 12.2148C29.4206 12.3893 29.6055 12.6055 29.7461 12.8633C29.8893 13.1211 29.9609 13.4297 29.9609 13.7891C29.9609 14.2422 29.8438 14.6445 29.6094 14.9961C29.3776 15.3477 29.0404 15.625 28.5977 15.8281C28.1576 16.0313 27.625 16.1328 27 16.1328C26.401 16.1328 25.8828 16.0378 25.4453 15.8477C25.0078 15.6576 24.6654 15.388 24.418 15.0391C24.1706 14.6875 24.0339 14.2708 24.0078 13.7891H25.2188C25.2422 14.0781 25.3359 14.319 25.5 14.5117C25.6667 14.7018 25.8789 14.8437 26.1367 14.9375C26.3971 15.0286 26.6823 15.0742 26.9922 15.0742C27.3333 15.0742 27.6367 15.0208 27.9023 14.9141C28.1706 14.8047 28.3815 14.6536 28.5352 14.4609C28.6888 14.2656 28.7656 14.0378 28.7656 13.7773C28.7656 13.5404 28.6979 13.3464 28.5625 13.1953C28.4297 13.0443 28.2487 12.9193 28.0195 12.8203C27.793 12.7214 27.5365 12.6341 27.25 12.5586L26.3047 12.3008C25.6641 12.1263 25.1563 11.8698 24.7813 11.5312C24.4089 11.1927 24.2227 10.7448 24.2227 10.1875C24.2227 9.72656 24.3477 9.32422 24.5977 8.98047C24.8477 8.63672 25.1862 8.36979 25.6133 8.17969C26.0404 7.98698 26.5221 7.89062 27.0586 7.89062C27.6003 7.89062 28.0781 7.98568 28.4922 8.17578C28.9089 8.36589 29.237 8.6276 29.4766 8.96094C29.7161 9.29167 29.8411 9.67187 29.8516 10.1016H28.6875ZM38.0479 10.6016H36.8291C36.7822 10.3411 36.695 10.112 36.5674 9.91406C36.4398 9.71615 36.2835 9.54818 36.0986 9.41016C35.9137 9.27214 35.7067 9.16797 35.4775 9.09766C35.251 9.02734 35.0101 8.99219 34.7549 8.99219C34.2939 8.99219 33.8812 9.10807 33.5166 9.33984C33.1546 9.57161 32.8682 9.91146 32.6572 10.3594C32.4489 10.8073 32.3447 11.3542 32.3447 12C32.3447 12.651 32.4489 13.2005 32.6572 13.6484C32.8682 14.0964 33.1559 14.4349 33.5205 14.6641C33.8851 14.8932 34.2952 15.0078 34.751 15.0078C35.0036 15.0078 35.2432 14.974 35.4697 14.9062C35.6989 14.8359 35.9059 14.7331 36.0908 14.5977C36.2757 14.4622 36.432 14.2969 36.5596 14.1016C36.6898 13.9036 36.7796 13.6771 36.8291 13.4219L38.0479 13.4258C37.9827 13.819 37.8564 14.181 37.6689 14.5117C37.484 14.8398 37.2458 15.1237 36.9541 15.3633C36.665 15.6003 36.3343 15.7839 35.9619 15.9141C35.5895 16.0443 35.1833 16.1094 34.7432 16.1094C34.0505 16.1094 33.4333 15.9453 32.8916 15.6172C32.3499 15.2865 31.9229 14.8138 31.6104 14.1992C31.3005 13.5846 31.1455 12.8516 31.1455 12C31.1455 11.1458 31.3018 10.4128 31.6143 9.80078C31.9268 9.1862 32.3538 8.71484 32.8955 8.38672C33.4372 8.05599 34.0531 7.89062 34.7432 7.89062C35.1676 7.89062 35.5635 7.95182 35.9307 8.07422C36.3005 8.19401 36.6325 8.37109 36.9268 8.60547C37.221 8.83724 37.4645 9.12109 37.6572 9.45703C37.8499 9.79036 37.9801 10.1719 38.0479 10.6016ZM43.8555 10.1016C43.8138 9.73177 43.6419 9.44531 43.3398 9.24219C43.0378 9.03646 42.6576 8.93359 42.1992 8.93359C41.8711 8.93359 41.5872 8.98568 41.3477 9.08984C41.1081 9.19141 40.9219 9.33203 40.7891 9.51172C40.6589 9.6888 40.5938 9.89062 40.5938 10.1172C40.5938 10.3073 40.638 10.4714 40.7266 10.6094C40.8177 10.7474 40.9362 10.8633 41.082 10.957C41.2305 11.0482 41.3893 11.125 41.5586 11.1875C41.7279 11.2474 41.8906 11.2969 42.0469 11.3359L42.8281 11.5391C43.0833 11.6016 43.3451 11.6862 43.6133 11.793C43.8815 11.8997 44.1302 12.0404 44.3594 12.2148C44.5885 12.3893 44.7734 12.6055 44.9141 12.8633C45.0573 13.1211 45.1289 13.4297 45.1289 13.7891C45.1289 14.2422 45.0117 14.6445 44.7773 14.9961C44.5456 15.3477 44.2083 15.625 43.7656 15.8281C43.3255 16.0313 42.793 16.1328 42.168 16.1328C41.569 16.1328 41.0508 16.0378 40.6133 15.8477C40.1758 15.6576 39.8333 15.388 39.5859 15.0391C39.3385 14.6875 39.2018 14.2708 39.1758 13.7891H40.3867C40.4102 14.0781 40.5039 14.319 40.668 14.5117C40.8346 14.7018 41.0469 14.8437 41.3047 14.9375C41.5651 15.0286 41.8503 15.0742 42.1602 15.0742C42.5013 15.0742 42.8047 15.0208 43.0703 14.9141C43.3385 14.8047 43.5495 14.6536 43.7031 14.4609C43.8568 14.2656 43.9336 14.0378 43.9336 13.7773C43.9336 13.5404 43.8659 13.3464 43.7305 13.1953C43.5977 13.0443 43.4167 12.9193 43.1875 12.8203C42.9609 12.7214 42.7044 12.6341 42.418 12.5586L41.4727 12.3008C40.832 12.1263 40.3242 11.8698 39.9492 11.5312C39.5768 11.1927 39.3906 10.7448 39.3906 10.1875C39.3906 9.72656 39.5156 9.32422 39.7656 8.98047C40.0156 8.63672 40.3542 8.36979 40.7813 8.17969C41.2083 7.98698 41.6901 7.89062 42.2266 7.89062C42.7682 7.89062 43.2461 7.98568 43.6602 8.17578C44.0768 8.36589 44.4049 8.6276 44.6445 8.96094C44.8841 9.29167 45.0091 9.67187 45.0195 10.1016H43.8555Z" fill="black"/>
<path d="M18.2397 19V16.8182H19.0174C19.1871 16.8182 19.3278 16.8491 19.4393 16.9109C19.5508 16.9727 19.6342 17.0572 19.6896 17.1644C19.745 17.271 19.7727 17.391 19.7727 17.5245C19.7727 17.6587 19.7447 17.7795 19.6886 17.8867C19.6332 17.9933 19.5494 18.0778 19.4371 18.1403C19.3256 18.2021 19.1854 18.233 19.0163 18.233H18.4815V17.9538H18.9865C19.0938 17.9538 19.1808 17.9354 19.2475 17.8984C19.3143 17.8608 19.3633 17.8097 19.3945 17.745C19.4258 17.6804 19.4414 17.6069 19.4414 17.5245C19.4414 17.4421 19.4258 17.369 19.3945 17.305C19.3633 17.2411 19.3139 17.1911 19.2464 17.1548C19.1797 17.1186 19.0916 17.1005 18.9822 17.1005H18.5689V19H18.2397ZM20.1331 19V17.3636H20.441V17.6236H20.458C20.4878 17.5355 20.5404 17.4663 20.6157 17.4158C20.6917 17.3647 20.7776 17.3391 20.8735 17.3391C20.8934 17.3391 20.9168 17.3398 20.9438 17.3413C20.9715 17.3427 20.9932 17.3445 21.0088 17.3466V17.6513C20.996 17.6477 20.9733 17.6438 20.9406 17.6396C20.9079 17.6346 20.8753 17.6321 20.8426 17.6321C20.7673 17.6321 20.7002 17.6481 20.6412 17.68C20.583 17.7113 20.5368 17.755 20.5028 17.8111C20.4687 17.8665 20.4516 17.9297 20.4516 18.0007V19H20.1331ZM21.9151 19.033C21.7617 19.033 21.6278 18.9979 21.5135 18.9276C21.3991 18.8572 21.3104 18.7589 21.2472 18.6325C21.1839 18.506 21.1523 18.3583 21.1523 18.1893C21.1523 18.0195 21.1839 17.8711 21.2472 17.744C21.3104 17.6168 21.3991 17.5181 21.5135 17.4478C21.6278 17.3775 21.7617 17.3423 21.9151 17.3423C22.0685 17.3423 22.2024 17.3775 22.3168 17.4478C22.4311 17.5181 22.5199 17.6168 22.5831 17.744C22.6463 17.8711 22.6779 18.0195 22.6779 18.1893C22.6779 18.3583 22.6463 18.506 22.5831 18.6325C22.5199 18.7589 22.4311 18.8572 22.3168 18.9276C22.2024 18.9979 22.0685 19.033 21.9151 19.033ZM21.9162 18.7656C22.0156 18.7656 22.098 18.7393 22.1634 18.6868C22.2287 18.6342 22.277 18.5643 22.3082 18.4769C22.3402 18.3896 22.3562 18.2933 22.3562 18.1882C22.3562 18.0838 22.3402 17.9879 22.3082 17.9006C22.277 17.8125 22.2287 17.7418 22.1634 17.6886C22.098 17.6353 22.0156 17.6087 21.9162 17.6087C21.8161 17.6087 21.733 17.6353 21.6669 17.6886C21.6016 17.7418 21.5529 17.8125 21.521 17.9006C21.4897 17.9879 21.4741 18.0838 21.4741 18.1882C21.4741 18.2933 21.4897 18.3896 21.521 18.4769C21.5529 18.5643 21.6016 18.6342 21.6669 18.6868C21.733 18.7393 21.8161 18.7656 21.9162 18.7656ZM23.7973 17.3636V17.6193H22.9035V17.3636H23.7973ZM23.1432 16.9716H23.4617V18.5195C23.4617 18.5813 23.471 18.6278 23.4894 18.6591C23.5079 18.6896 23.5317 18.7106 23.5608 18.7219C23.5906 18.7326 23.623 18.7379 23.6578 18.7379C23.6833 18.7379 23.7057 18.7362 23.7249 18.7326C23.7441 18.729 23.759 18.7262 23.7696 18.7241L23.8271 18.9872C23.8087 18.9943 23.7824 19.0014 23.7483 19.0085C23.7142 19.0163 23.6716 19.0206 23.6205 19.0213C23.5367 19.0227 23.4585 19.0078 23.3861 18.9766C23.3137 18.9453 23.2551 18.897 23.2103 18.8317C23.1656 18.7663 23.1432 18.6843 23.1432 18.5856V16.9716ZM24.8374 19.033C24.6761 19.033 24.5373 18.9986 24.4208 18.9297C24.305 18.8601 24.2156 18.7624 24.1523 18.6367C24.0898 18.5103 24.0586 18.3622 24.0586 18.1925C24.0586 18.0249 24.0898 17.8771 24.1523 17.7493C24.2156 17.6214 24.3036 17.5217 24.4165 17.4499C24.5302 17.3782 24.663 17.3423 24.815 17.3423C24.9073 17.3423 24.9968 17.3576 25.0835 17.3881C25.1701 17.4187 25.2479 17.4666 25.3168 17.532C25.3857 17.5973 25.44 17.6822 25.4798 17.7866C25.5195 17.8903 25.5394 18.0163 25.5394 18.1648V18.2777H24.2386V18.0391H25.2273C25.2273 17.9553 25.2102 17.881 25.1761 17.8164C25.142 17.7511 25.0941 17.6996 25.0323 17.6619C24.9712 17.6243 24.8995 17.6055 24.8171 17.6055C24.7276 17.6055 24.6495 17.6275 24.5827 17.6715C24.5167 17.7148 24.4656 17.7717 24.4293 17.842C24.3938 17.9116 24.3761 17.9872 24.3761 18.0689V18.2553C24.3761 18.3647 24.3952 18.4577 24.4336 18.5344C24.4727 18.6112 24.527 18.6697 24.5966 18.7102C24.6662 18.75 24.7475 18.7699 24.8406 18.7699C24.9009 18.7699 24.956 18.7614 25.0057 18.7443C25.0554 18.7266 25.0984 18.7003 25.1346 18.6655C25.1708 18.6307 25.1985 18.5877 25.2177 18.5366L25.5192 18.5909C25.495 18.6797 25.4517 18.7575 25.3892 18.8242C25.3274 18.8903 25.2496 18.9418 25.1559 18.9787C25.0629 19.0149 24.9567 19.033 24.8374 19.033ZM26.5821 19.033C26.4237 19.033 26.2874 18.9972 26.173 18.9254C26.0594 18.853 25.972 18.7532 25.911 18.6261C25.8499 18.4989 25.8193 18.3533 25.8193 18.1893C25.8193 18.0231 25.8506 17.8764 25.9131 17.7493C25.9756 17.6214 26.0637 17.5217 26.1773 17.4499C26.2909 17.3782 26.4248 17.3423 26.5789 17.3423C26.7032 17.3423 26.814 17.3654 26.9113 17.4116C27.0086 17.457 27.0871 17.521 27.1468 17.6033C27.2071 17.6857 27.243 17.782 27.2544 17.892H26.9443C26.9273 17.8153 26.8882 17.7493 26.8271 17.6939C26.7668 17.6385 26.6858 17.6108 26.5843 17.6108C26.4955 17.6108 26.4177 17.6342 26.3509 17.6811C26.2849 17.7273 26.2334 17.7933 26.1965 17.8793C26.1595 17.9645 26.1411 18.0653 26.1411 18.1818C26.1411 18.3011 26.1592 18.4041 26.1954 18.4908C26.2316 18.5774 26.2828 18.6445 26.3488 18.6921C26.4156 18.7397 26.4941 18.7635 26.5843 18.7635C26.6446 18.7635 26.6993 18.7525 26.7483 18.7305C26.798 18.7077 26.8396 18.6754 26.873 18.6335C26.907 18.5916 26.9308 18.5412 26.9443 18.4822H27.2544C27.243 18.5881 27.2085 18.6825 27.151 18.7656C27.0935 18.8487 27.0164 18.9141 26.9198 18.9616C26.824 19.0092 26.7114 19.033 26.5821 19.033ZM28.3588 17.3636V17.6193H27.465V17.3636H28.3588ZM27.7047 16.9716H28.0233V18.5195C28.0233 18.5813 28.0325 18.6278 28.051 18.6591C28.0694 18.6896 28.0932 18.7106 28.1223 18.7219C28.1522 18.7326 28.1845 18.7379 28.2193 18.7379C28.2449 18.7379 28.2672 18.7362 28.2864 18.7326C28.3056 18.729 28.3205 18.7262 28.3311 18.7241L28.3887 18.9872C28.3702 18.9943 28.3439 19.0014 28.3098 19.0085C28.2757 19.0163 28.2331 19.0206 28.182 19.0213C28.0982 19.0227 28.0201 19.0078 27.9476 18.9766C27.8752 18.9453 27.8166 18.897 27.7718 18.8317C27.7271 18.7663 27.7047 18.6843 27.7047 18.5856V16.9716ZM29.3989 19.033C29.2377 19.033 29.0988 18.9986 28.9823 18.9297C28.8666 18.8601 28.7771 18.7624 28.7139 18.6367C28.6514 18.5103 28.6201 18.3622 28.6201 18.1925C28.6201 18.0249 28.6514 17.8771 28.7139 17.7493C28.7771 17.6214 28.8651 17.5217 28.9781 17.4499C29.0917 17.3782 29.2245 17.3423 29.3765 17.3423C29.4688 17.3423 29.5583 17.3576 29.645 17.3881C29.7316 17.4187 29.8094 17.4666 29.8783 17.532C29.9472 17.5973 30.0015 17.6822 30.0413 17.7866C30.0811 17.8903 30.1009 18.0163 30.1009 18.1648V18.2777H28.8002V18.0391H29.7888C29.7888 17.9553 29.7718 17.881 29.7377 17.8164C29.7036 17.7511 29.6556 17.6996 29.5938 17.6619C29.5328 17.6243 29.461 17.6055 29.3786 17.6055C29.2892 17.6055 29.211 17.6275 29.1443 17.6715C29.0782 17.7148 29.0271 17.7717 28.9909 17.842C28.9553 17.9116 28.9376 17.9872 28.9376 18.0689V18.2553C28.9376 18.3647 28.9568 18.4577 28.9951 18.5344C29.0342 18.6112 29.0885 18.6697 29.1581 18.7102C29.2277 18.75 29.309 18.7699 29.4021 18.7699C29.4624 18.7699 29.5175 18.7614 29.5672 18.7443C29.6169 18.7266 29.6599 18.7003 29.6961 18.6655C29.7323 18.6307 29.76 18.5877 29.7792 18.5366L30.0807 18.5909C30.0566 18.6797 30.0132 18.7575 29.9507 18.8242C29.8889 18.8903 29.8112 18.9418 29.7174 18.9787C29.6244 19.0149 29.5182 19.033 29.3989 19.033ZM31.0669 19.032C30.9348 19.032 30.8169 18.9982 30.7132 18.9308C30.6103 18.8626 30.5293 18.7656 30.4703 18.6399C30.4121 18.5135 30.383 18.3619 30.383 18.185C30.383 18.0082 30.4125 17.8569 30.4714 17.7312C30.5311 17.6055 30.6127 17.5092 30.7164 17.4425C30.8201 17.3757 30.9377 17.3423 31.0691 17.3423C31.1706 17.3423 31.2523 17.3594 31.3141 17.3935C31.3766 17.4268 31.4249 17.4659 31.459 17.5107C31.4938 17.5554 31.5208 17.5948 31.54 17.6289H31.5591V16.8182H31.8777V19H31.5666V18.7454H31.54C31.5208 18.7802 31.4931 18.82 31.4569 18.8647C31.4213 18.9094 31.3723 18.9485 31.3098 18.9819C31.2473 19.0153 31.1664 19.032 31.0669 19.032ZM31.1373 18.7603C31.2289 18.7603 31.3063 18.7362 31.3695 18.6879C31.4334 18.6388 31.4817 18.571 31.5144 18.4844C31.5478 18.3977 31.5645 18.2969 31.5645 18.1818C31.5645 18.0682 31.5481 17.9687 31.5154 17.8835C31.4828 17.7983 31.4348 17.7319 31.3716 17.6843C31.3084 17.6367 31.2303 17.6129 31.1373 17.6129C31.0414 17.6129 30.9615 17.6378 30.8975 17.6875C30.8336 17.7372 30.7853 17.805 30.7527 17.891C30.7207 17.9769 30.7047 18.0739 30.7047 18.1818C30.7047 18.2912 30.7211 18.3896 30.7537 18.4769C30.7864 18.5643 30.8347 18.6335 30.8986 18.6847C30.9632 18.7351 31.0428 18.7603 31.1373 18.7603Z" fill="black"/>
</svg>
