<svg width="26" height="17" viewBox="0 0 26 17" fill="none" xmlns="http://www.w3.org/2000/svg">
<path opacity="0.9" d="M16 17C15.4696 17 14.9609 16.7893 14.5858 16.4142C14.2107 16.0391 14 15.5304 14 15V3C14 2.46957 14.2107 1.96086 14.5858 1.58579C14.9609 1.21071 15.4696 1 16 1H24C24.5304 1 25.0391 1.21071 25.4142 1.58579C25.7893 1.96086 26 2.46957 26 3V15C26 15.5304 25.7893 16.0391 25.4142 16.4142C25.0391 16.7893 24.5304 17 24 17H16ZM17 14.5C17 14.6326 17.0527 14.7598 17.1464 14.8536C17.2402 14.9473 17.3674 15 17.5 15H18.5C18.6326 15 18.7598 14.9473 18.8536 14.8536C18.9473 14.7598 19 14.6326 19 14.5V12.5C19 12.3674 18.9473 12.2402 18.8536 12.1464C18.7598 12.0527 18.6326 12 18.5 12H17.5C17.3674 12 17.2402 12.0527 17.1464 12.1464C17.0527 12.2402 17 12.3674 17 12.5V14.5ZM20 14.5C20 14.6326 20.0527 14.7598 20.1464 14.8536C20.2402 14.9473 20.3674 15 20.5 15C20.6326 15 20.7598 14.9473 20.8536 14.8536C20.9473 14.7598 21 14.6326 21 14.5V9.5C21 9.36739 20.9473 9.24021 20.8536 9.14645C20.7598 9.05268 20.6326 9 20.5 9C20.3674 9 20.2402 9.05268 20.1464 9.14645C20.0527 9.24021 20 9.36739 20 9.5V14.5ZM22 14.5C22 14.6326 22.0527 14.7598 22.1464 14.8536C22.2402 14.9473 22.3674 15 22.5 15C22.6326 15 22.7598 14.9473 22.8536 14.8536C22.9473 14.7598 23 14.6326 23 14.5V13.5C23 13.3674 22.9473 13.2402 22.8536 13.1464C22.7598 13.0527 22.6326 13 22.5 13C22.3674 13 22.2402 13.0527 22.1464 13.1464C22.0527 13.2402 22 13.3674 22 13.5V14.5ZM22 11.5C22 11.6326 22.0527 11.7598 22.1464 11.8536C22.2402 11.9473 22.3674 12 22.5 12C22.6326 12 22.7598 11.9473 22.8536 11.8536C22.9473 11.7598 23 11.6326 23 11.5V10.5C23 10.3674 22.9473 10.2402 22.8536 10.1464C22.7598 10.0527 22.6326 10 22.5 10C22.3674 10 22.2402 10.0527 22.1464 10.1464C22.0527 10.2402 22 10.3674 22 10.5V11.5ZM22 8.5C22 8.63261 22.0527 8.75979 22.1464 8.85355C22.2402 8.94732 22.3674 9 22.5 9C22.6326 9 22.7598 8.94732 22.8536 8.85355C22.9473 8.75979 23 8.63261 23 8.5V7.5C23 7.36739 22.9473 7.24021 22.8536 7.14645C22.7598 7.05268 22.6326 7 22.5 7C22.3674 7 22.2402 7.05268 22.1464 7.14645C22.0527 7.24021 22 7.36739 22 7.5V8.5ZM22 5.5C22 5.63261 22.0527 5.75979 22.1464 5.85355C22.2402 5.94732 22.3674 6 22.5 6C22.6326 6 22.7598 5.94732 22.8536 5.85355C22.9473 5.75979 23 5.63261 23 5.5V4.5C23 4.36739 22.9473 4.24021 22.8536 4.14645C22.7598 4.05268 22.6326 4 22.5 4C22.3674 4 22.2402 4.05268 22.1464 4.14645C22.0527 4.24021 22 4.36739 22 4.5V5.5Z" fill="black"/>
<path d="M4.33333 1H2.66667C2.22464 1 1.80072 1.17559 1.48816 1.48816C1.17559 1.80072 1 2.22464 1 2.66667V14.3333C1 14.7754 1.17559 15.1993 1.48816 15.5118C1.80072 15.8244 2.22464 16 2.66667 16H9.33333C9.77536 16 10.1993 15.8244 10.5118 15.5118C10.8244 15.1993 11 14.7754 11 14.3333V2.66667C11 2.22464 10.8244 1.80072 10.5118 1.48816C10.1993 1.17559 9.77536 1 9.33333 1H7.66667M4.33333 1H7.66667M4.33333 1V1.83333M7.66667 1V1.83333M7.66667 1.83333C7.66667 2.05435 7.57887 2.26631 7.42259 2.42259C7.26631 2.57887 7.05435 2.66667 6.83333 2.66667H5.16667C4.94565 2.66667 4.73369 2.57887 4.57741 2.42259C4.42113 2.26631 4.33333 2.05435 4.33333 1.83333M7.66667 1.83333H4.33333M3.5 5.1675V5.16667M3.5 7.6675V7.66667M6 7.6675V7.66667M6 5.1675V5.16667M8.5 5.1675V5.16667M8.5 7.6675V7.66667M3.5 10.1675V10.1667M6 10.1675V10.1667" stroke="black" stroke-width="2" stroke-linecap="round" stroke-linejoin="round"/>
</svg>
