<svg width="442" height="113" viewBox="0 0 442 113" fill="none" xmlns="http://www.w3.org/2000/svg">
<path d="M18.0568 93H2.14773V89.9773H18.0568V93ZM13.2841 83.8864H2.06818V80.8636H13.2841V83.8864ZM7.77273 76.6136L8.13636 86.4205C8.18182 87.3977 8.05682 88.2727 7.76136 89.0455C7.46591 89.8106 6.93182 90.4205 6.15909 90.875L3.25 89.9773C3.65909 89.9545 3.97348 89.7462 4.19318 89.3523C4.41288 88.9583 4.56061 88.4962 4.63636 87.9659C4.71212 87.428 4.74242 86.9432 4.72727 86.5114L4.39773 76.6136C4.33712 75.0227 4.63258 73.6932 5.28409 72.625C5.94318 71.5568 6.81818 70.7538 7.90909 70.2159C9 69.678 10.1742 69.4091 11.4318 69.4091C12.553 69.4091 13.5606 69.5947 14.4545 69.9659C15.3561 70.3371 16.1136 70.8447 16.7273 71.4886C17.3485 72.125 17.7917 72.8523 18.0568 73.6705C18.322 74.4886 18.375 75.3485 18.2159 76.25L14.9318 75.7273C15.0076 74.9848 14.8902 74.3674 14.5795 73.875C14.2689 73.3826 13.8409 73.0114 13.2955 72.7614C12.75 72.5114 12.1705 72.3864 11.5568 72.3864C10.9129 72.3864 10.2992 72.5379 9.71591 72.8409C9.14015 73.1439 8.67045 73.6061 8.30682 74.2273C7.95076 74.8485 7.77273 75.6439 7.77273 76.6136ZM51.6477 94.1591C46.2614 94.1364 41.6591 92.7159 37.8409 89.8977C34.0227 87.0795 31.1023 82.9773 29.0795 77.5909C27.0568 72.2045 26.0455 65.7159 26.0455 58.125C26.0455 50.5568 27.0568 44.0909 29.0795 38.7273C31.125 33.3636 34.0568 29.2727 37.875 26.4545C41.7159 23.6364 46.3068 22.2273 51.6477 22.2273C56.9886 22.2273 61.5682 23.6477 65.3864 26.4886C69.2045 29.3068 72.125 33.3977 74.1477 38.7614C76.1932 44.1023 77.2159 50.5568 77.2159 58.125C77.2159 65.7386 76.2045 72.2386 74.1818 77.625C72.1591 82.9886 69.2386 87.0909 65.4205 89.9318C61.6023 92.75 57.0114 94.1591 51.6477 94.1591ZM51.6477 85.0568C56.375 85.0568 60.0682 82.75 62.7273 78.1364C65.4091 73.5227 66.75 66.8523 66.75 58.125C66.75 52.3295 66.1364 47.4318 64.9091 43.4318C63.7045 39.4091 61.9659 36.3636 59.6932 34.2955C57.4432 32.2045 54.7614 31.1591 51.6477 31.1591C46.9432 31.1591 43.25 33.4773 40.5682 38.1136C37.8864 42.75 36.5341 49.4205 36.5114 58.125C36.5114 63.9432 37.1136 68.8636 38.3182 72.8864C39.5455 76.8864 41.2841 79.9205 43.5341 81.9886C45.7841 84.0341 48.4886 85.0568 51.6477 85.0568ZM84.8778 99.5455V75.5455H88.196V78.375H88.4801C88.6771 78.0114 88.9612 77.5909 89.3324 77.1136C89.7036 76.6364 90.2188 76.2197 90.8778 75.8636C91.5369 75.5 92.4081 75.3182 93.4915 75.3182C94.9006 75.3182 96.1581 75.6742 97.2642 76.3864C98.3703 77.0985 99.2377 78.125 99.8665 79.4659C100.503 80.8068 100.821 82.4205 100.821 84.3068C100.821 86.1932 100.507 87.8106 99.8778 89.1591C99.2491 90.5 98.3854 91.5341 97.2869 92.2614C96.1884 92.9811 94.9347 93.3409 93.5256 93.3409C92.465 93.3409 91.5975 93.1629 90.9233 92.8068C90.2566 92.4508 89.7339 92.0341 89.3551 91.5568C88.9763 91.0795 88.6847 90.6553 88.4801 90.2841H88.2756V99.5455H84.8778ZM88.2074 84.2727C88.2074 85.5 88.3854 86.5758 88.7415 87.5C89.0975 88.4242 89.6127 89.1477 90.2869 89.6705C90.9612 90.1856 91.7869 90.4432 92.7642 90.4432C93.7794 90.4432 94.6278 90.1742 95.3097 89.6364C95.9915 89.0909 96.5066 88.3523 96.8551 87.4205C97.2112 86.4886 97.3892 85.4394 97.3892 84.2727C97.3892 83.1212 97.215 82.0871 96.8665 81.1705C96.5256 80.2538 96.0104 79.5303 95.321 79C94.6392 78.4697 93.7869 78.2045 92.7642 78.2045C91.7794 78.2045 90.946 78.4583 90.2642 78.9659C89.59 79.4735 89.0786 80.1818 88.7301 81.0909C88.3816 82 88.2074 83.0606 88.2074 84.2727ZM112.151 93.3523C110.431 93.3523 108.95 92.9848 107.707 92.25C106.473 91.5076 105.518 90.4659 104.844 89.125C104.177 87.7765 103.844 86.197 103.844 84.3864C103.844 82.5985 104.177 81.0227 104.844 79.6591C105.518 78.2955 106.457 77.2311 107.662 76.4659C108.874 75.7008 110.291 75.3182 111.912 75.3182C112.897 75.3182 113.851 75.4811 114.776 75.8068C115.7 76.1326 116.529 76.6439 117.264 77.3409C117.999 78.0379 118.579 78.9432 119.003 80.0568C119.427 81.1629 119.639 82.5076 119.639 84.0909V85.2955H105.764V82.75H116.31C116.31 81.8561 116.128 81.0644 115.764 80.375C115.401 79.678 114.889 79.1288 114.23 78.7273C113.579 78.3258 112.813 78.125 111.935 78.125C110.98 78.125 110.147 78.3598 109.435 78.8295C108.73 79.2917 108.185 79.8977 107.798 80.6477C107.42 81.3902 107.23 82.197 107.23 83.0682V85.0568C107.23 86.2235 107.435 87.2159 107.844 88.0341C108.26 88.8523 108.84 89.4773 109.582 89.9091C110.325 90.3333 111.192 90.5455 112.185 90.5455C112.829 90.5455 113.416 90.4545 113.946 90.2727C114.476 90.0833 114.935 89.803 115.321 89.4318C115.707 89.0606 116.003 88.6023 116.207 88.0568L119.423 88.6364C119.166 89.5833 118.704 90.4129 118.037 91.125C117.378 91.8295 116.548 92.3788 115.548 92.7727C114.556 93.1591 113.423 93.3523 112.151 93.3523ZM123.409 93V75.5455H126.693V78.3182H126.875C127.193 77.3788 127.754 76.6402 128.557 76.1023C129.367 75.5568 130.284 75.2841 131.307 75.2841C131.519 75.2841 131.769 75.2917 132.057 75.3068C132.352 75.322 132.583 75.3409 132.75 75.3636V78.6136C132.614 78.5758 132.371 78.5341 132.023 78.4886C131.674 78.4356 131.326 78.4091 130.977 78.4091C130.174 78.4091 129.458 78.5795 128.83 78.9205C128.208 79.2538 127.716 79.7197 127.352 80.3182C126.989 80.9091 126.807 81.5833 126.807 82.3409V93H123.409ZM144.159 93V75.5455H147.42V78.3864H147.636C148 77.4242 148.595 76.6742 149.42 76.1364C150.246 75.5909 151.235 75.3182 152.386 75.3182C153.553 75.3182 154.53 75.5909 155.318 76.1364C156.114 76.6818 156.701 77.4318 157.08 78.3864H157.261C157.678 77.4545 158.341 76.7121 159.25 76.1591C160.159 75.5985 161.242 75.3182 162.5 75.3182C164.083 75.3182 165.375 75.8144 166.375 76.8068C167.383 77.7992 167.886 79.2955 167.886 81.2955V93H164.489V81.6136C164.489 80.4318 164.167 79.5758 163.523 79.0455C162.879 78.5152 162.11 78.25 161.216 78.25C160.11 78.25 159.25 78.5909 158.636 79.2727C158.023 79.947 157.716 80.8144 157.716 81.875V93H154.33V81.3977C154.33 80.4508 154.034 79.6894 153.443 79.1136C152.852 78.5379 152.083 78.25 151.136 78.25C150.492 78.25 149.898 78.4205 149.352 78.7614C148.814 79.0947 148.379 79.5606 148.045 80.1591C147.72 80.7576 147.557 81.4508 147.557 82.2386V93H144.159ZM179.793 93.3523C178.156 93.3523 176.728 92.9773 175.509 92.2273C174.289 91.4773 173.342 90.428 172.668 89.0795C171.993 87.7311 171.656 86.1553 171.656 84.3523C171.656 82.5417 171.993 80.9583 172.668 79.6023C173.342 78.2462 174.289 77.1932 175.509 76.4432C176.728 75.6932 178.156 75.3182 179.793 75.3182C181.429 75.3182 182.857 75.6932 184.077 76.4432C185.296 77.1932 186.243 78.2462 186.918 79.6023C187.592 80.9583 187.929 82.5417 187.929 84.3523C187.929 86.1553 187.592 87.7311 186.918 89.0795C186.243 90.428 185.296 91.4773 184.077 92.2273C182.857 92.9773 181.429 93.3523 179.793 93.3523ZM179.804 90.5C180.865 90.5 181.743 90.2197 182.44 89.6591C183.137 89.0985 183.652 88.3523 183.986 87.4205C184.327 86.4886 184.497 85.4621 184.497 84.3409C184.497 83.2273 184.327 82.2045 183.986 81.2727C183.652 80.3333 183.137 79.5795 182.44 79.0114C181.743 78.4432 180.865 78.1591 179.804 78.1591C178.736 78.1591 177.849 78.4432 177.145 79.0114C176.448 79.5795 175.929 80.3333 175.588 81.2727C175.255 82.2045 175.088 83.2273 175.088 84.3409C175.088 85.4621 175.255 86.4886 175.588 87.4205C175.929 88.3523 176.448 89.0985 177.145 89.6591C177.849 90.2197 178.736 90.5 179.804 90.5ZM195.119 82.6364V93H191.722V75.5455H194.983V78.3864H195.199C195.6 77.4621 196.229 76.7197 197.085 76.1591C197.949 75.5985 199.036 75.3182 200.347 75.3182C201.536 75.3182 202.578 75.5682 203.472 76.0682C204.366 76.5606 205.059 77.2955 205.551 78.2727C206.044 79.25 206.29 80.4583 206.29 81.8977V93H202.892V82.3068C202.892 81.0417 202.563 80.053 201.903 79.3409C201.244 78.6212 200.339 78.2614 199.188 78.2614C198.4 78.2614 197.699 78.4318 197.085 78.7727C196.479 79.1136 195.998 79.6136 195.642 80.2727C195.294 80.9242 195.119 81.7121 195.119 82.6364ZM218.994 75.5455V78.2727H209.46V75.5455H218.994ZM212.017 71.3636H215.415V87.875C215.415 88.5341 215.513 89.0303 215.71 89.3636C215.907 89.6894 216.161 89.9129 216.472 90.0341C216.79 90.1477 217.134 90.2045 217.506 90.2045C217.778 90.2045 218.017 90.1856 218.222 90.1477C218.426 90.1098 218.585 90.0795 218.699 90.0568L219.312 92.8636C219.116 92.9394 218.835 93.0152 218.472 93.0909C218.108 93.1742 217.653 93.2197 217.108 93.2273C216.214 93.2424 215.381 93.0833 214.608 92.75C213.835 92.4167 213.21 91.9015 212.733 91.2045C212.256 90.5076 212.017 89.6326 212.017 88.5795V71.3636ZM226.526 82.6364V93H223.128V69.7273H226.48V78.3864H226.696C227.105 77.447 227.73 76.7008 228.571 76.1477C229.412 75.5947 230.51 75.3182 231.866 75.3182C233.063 75.3182 234.109 75.5644 235.003 76.0568C235.904 76.5492 236.601 77.2841 237.094 78.2614C237.594 79.2311 237.844 80.4432 237.844 81.8977V93H234.446V82.3068C234.446 81.0265 234.116 80.0341 233.457 79.3295C232.798 78.6174 231.882 78.2614 230.707 78.2614C229.904 78.2614 229.185 78.4318 228.548 78.7727C227.92 79.1136 227.423 79.6136 227.06 80.2727C226.704 80.9242 226.526 81.7121 226.526 82.6364Z" fill="black"/>
</svg>
